<svg xmlns="http://www.w3.org/2000/svg" viewBox="0 0 256 256" width="256" height="256"><defs><radialGradient id="sh" cx="0.5" cy="0.5" r="0.5"><stop offset="0" stop-color="#000" stop-opacity="0.26"/><stop offset="1" stop-color="#000" stop-opacity="0"/></radialGradient><linearGradient id="cup" x1="0" y1="0" x2="1" y2="0"><stop offset="0" stop-color="#D5DCE2"/><stop offset="0.3" stop-color="#FFFFFF"/><stop offset="0.45" stop-color="#F4F6F8"/><stop offset="1" stop-color="#AEB8C2"/></linearGradient><radialGradient id="crema" cx="0.45" cy="0.45" r="0.6"><stop offset="0" stop-color="#E9C08A"/><stop offset="0.5" stop-color="#B07438"/><stop offset="1" stop-color="#5A3214"/></radialGradient><linearGradient id="saucer" x1="0" y1="0" x2="0" y2="1"><stop offset="0" stop-color="#FFFFFF"/><stop offset="1" stop-color="#D3D9DE"/></linearGradient></defs><ellipse cx="128" cy="214" rx="100" ry="15" fill="url(#sh)"/><ellipse cx="128" cy="198" rx="96" ry="20" fill="#C1C8CE"/><ellipse cx="128" cy="195" rx="94" ry="18" fill="url(#saucer)"/><path d="M180 110 c 36 -4 40 48 2 52" fill="none" stroke="#E6EBEF" stroke-width="12" stroke-linecap="round"/><path d="M180 110 c 36 -4 40 48 2 52" fill="none" stroke="#B8C2CB" stroke-width="2"/><path d="M62 98 C 64 160, 88 192, 128 192 C 168 192, 192 160, 194 98 Z" fill="url(#cup)"/><ellipse cx="128" cy="98" rx="66" ry="16" fill="#E7ECF0"/><ellipse cx="128" cy="100" rx="58" ry="12" fill="url(#crema)"/><path d="M112 98 c 8 -6 24 -6 32 0 c -8 6 -24 6 -32 0 z" fill="#F3D8AE" opacity="0.8"/><path d="M76 112 C 80 150, 96 174, 114 182" stroke="#FFFFFF" stroke-width="6" fill="none" opacity="0.8" stroke-linecap="round"/></svg>