<svg xmlns="http://www.w3.org/2000/svg" viewBox="0 0 256 256" width="256" height="256"><defs><radialGradient id="sh" cx="0.5" cy="0.5" r="0.5"><stop offset="0" stop-color="#000" stop-opacity="0.26"/><stop offset="1" stop-color="#000" stop-opacity="0"/></radialGradient><linearGradient id="oj" x1="0" y1="0" x2="1" y2="1"><stop offset="0" stop-color="#FFB52E"/><stop offset="0.5" stop-color="#FF9A0A"/><stop offset="1" stop-color="#E07000"/></linearGradient><radialGradient id="ojTop" cx="0.4" cy="0.35" r="0.75"><stop offset="0" stop-color="#FFD27A"/><stop offset="1" stop-color="#FFA21C"/></radialGradient><linearGradient id="glass" x1="0" y1="0" x2="1" y2="0"><stop offset="0" stop-color="#FFFFFF" stop-opacity="0.55"/><stop offset="0.18" stop-color="#FFFFFF" stop-opacity="0.12"/><stop offset="0.3" stop-color="#FFFFFF" stop-opacity="0.6"/><stop offset="0.4" stop-color="#FFFFFF" stop-opacity="0.08"/><stop offset="1" stop-color="#FFFFFF" stop-opacity="0.45"/></linearGradient><radialGradient id="slice" cx="0.5" cy="0.5" r="0.5"><stop offset="0" stop-color="#FFF2C4"/><stop offset="0.75" stop-color="#FFC53D"/><stop offset="1" stop-color="#F08A00"/></radialGradient></defs><ellipse cx="128" cy="222" rx="66" ry="10" fill="url(#sh)"/><path d="M80 92 L90 206 C 92 216, 164 216, 166 206 L176 92 Z" fill="url(#oj)"/><ellipse cx="128" cy="92" rx="48" ry="10" fill="url(#ojTop)"/><path d="M74 66 L88 210 C 90 222, 166 222, 168 210 L182 66 Z" fill="url(#glass)" stroke="#FFFFFF" stroke-opacity="0.85" stroke-width="2"/><ellipse cx="128" cy="66" rx="54" ry="11" fill="none" stroke="#FFFFFF" stroke-width="3" opacity="0.9"/><path d="M86 84 L96 196" stroke="#FFFFFF" stroke-width="5" stroke-linecap="round" opacity="0.7"/><path d="M150 96 L178 22" stroke="#2F8A57" stroke-width="8" stroke-linecap="round"/><path d="M150 96 L178 22" stroke="#FFFFFF" stroke-width="2" stroke-linecap="round" opacity="0.5"/><g transform="translate(78 70)"><circle r="26" fill="url(#slice)"/><circle r="20" fill="none" stroke="#FFF5D6" stroke-width="2"/><line x1="0" y1="0" x2="0" y2="-19" stroke="#FFF5D6" stroke-width="1.6"/><line x1="0" y1="0" x2="16" y2="-10" stroke="#FFF5D6" stroke-width="1.6"/><line x1="0" y1="0" x2="16" y2="10" stroke="#FFF5D6" stroke-width="1.6"/><line x1="0" y1="0" x2="0" y2="19" stroke="#FFF5D6" stroke-width="1.6"/><line x1="0" y1="0" x2="-16" y2="10" stroke="#FFF5D6" stroke-width="1.6"/><line x1="0" y1="0" x2="-16" y2="-10" stroke="#FFF5D6" stroke-width="1.6"/></g></svg>