<svg xmlns="http://www.w3.org/2000/svg" viewBox="0 0 256 256" width="256" height="256"><defs><radialGradient id="sh" cx="0.5" cy="0.5" r="0.5"><stop offset="0" stop-color="#000" stop-opacity="0.26"/><stop offset="1" stop-color="#000" stop-opacity="0"/></radialGradient><linearGradient id="br" x1="0" y1="0" x2="0" y2="1"><stop offset="0" stop-color="#F8E3B6"/><stop offset="1" stop-color="#E8C687"/></linearGradient><linearGradient id="crust" x1="0" y1="0" x2="0" y2="1"><stop offset="0" stop-color="#C98A3E"/><stop offset="1" stop-color="#9C6420"/></linearGradient></defs><ellipse cx="128" cy="214" rx="100" ry="12" fill="url(#sh)"/><path d="M40 176 L216 176 L128 64 Z" fill="url(#crust)"/><path d="M50 172 L206 172 L128 74 Z" fill="url(#br)"/><path d="M36 182 C 70 168, 90 194, 128 180 C 166 194, 186 168, 220 182 L216 190 L40 190 Z" fill="#43A047"/><path d="M40 188 L216 188 L216 200 L40 200 Z" fill="#E57373"/><path d="M40 198 L216 198 L208 206 L48 206 Z" fill="#FFD54F"/><path d="M40 204 L216 204 L216 214 C 216 220, 40 220, 40 214 Z" fill="url(#crust)"/><path d="M64 166 L128 86" stroke="#FFFFFF" stroke-width="4" opacity="0.5" stroke-linecap="round"/></svg>